<svg xmlns="http://www.w3.org/2000/svg" viewBox="0 0 240 220" width="240" height="220" role="img"><rect width="240" height="220" fill="#fff"/><g fill="none" stroke="#3d4142" stroke-width="3.2" stroke-linecap="round" stroke-linejoin="round"><path d="M40 30l24 50" stroke="#9a9a96" stroke-width="2.4"/><path d="M120 30l0 50" stroke="#9a9a96" stroke-width="2.4"/><path d="M200 30l-24 50" stroke="#9a9a96" stroke-width="2.4"/><path d="M22 160h196v22H22z"/><circle cx="120" cy="96" r="12"/><path d="M104 158v-30a16 16 0 0 1 32 0v30"/><path d="M150 158v-44M144 110h12"/><circle cx="150" cy="106" r="5"/><circle cx="60" cy="118" r="8" fill="#3d4142"/><path d="M68 118V82l18-6v36"/><circle cx="78" cy="112" r="8" fill="#3d4142"/><circle cx="184" cy="120" r="8" fill="#3d4142"/><path d="M192 120V86l10 8"/></g></svg>