<svg xmlns="http://www.w3.org/2000/svg" viewBox="0 0 240 220" width="240" height="220" role="img"><rect width="240" height="220" fill="#fff"/><g fill="none" stroke="#3d4142" stroke-width="3.2" stroke-linecap="round" stroke-linejoin="round"><circle cx="62.8" cy="122.8" r="27.9"/><circle cx="158.0" cy="122.8" r="27.9"/><path d="M62.8 122.8L107.1 122.8L90.7 76.9L139.9 76.9L107.1 122.8M62.8 122.8L90.7 76.9M139.9 76.9L158.0 122.8"/><path d="M90.7 76.9L87.4 67.0M79.2 67.0L97.3 67.0M139.9 76.9L135.0 62.1L148.1 58.8"/><path d="M16 196q52-16 104-6t104-4" stroke="#9a9a96" stroke-width="2.4"/><ellipse cx="170" cy="46" rx="48" ry="14" fill="#a4c63f" fill-opacity="0.28" stroke="none"/><path d="M126 46q10-6 20 0t20 0t20 0" stroke="#9a9a96" stroke-width="2"/><circle cx="54" cy="44" r="16"/></g></svg>