<svg xmlns="http://www.w3.org/2000/svg" viewBox="0 0 240 220" width="240" height="220" role="img"><rect width="240" height="220" fill="#fff"/><g fill="none" stroke="#3d4142" stroke-width="3.2" stroke-linecap="round" stroke-linejoin="round"><path d="M58 104c4-30 28-40 44-38-4 20-18 34-44 38z" fill="#a4c63f" fill-opacity="0.45"/><path d="M100 104c6-34 30-46 50-44-6 24-22 38-50 44z" fill="#a4c63f" fill-opacity="0.45"/><path d="M142 104c2-24 20-34 38-32-4 18-16 28-38 32z" fill="#a4c63f" fill-opacity="0.45"/><circle cx="128" cy="92" r="9" fill="#d9573f" fill-opacity="0.55"/><path d="M42 104h156c0 44-34 70-78 70s-78-26-78-70z"/><path d="M92 174h56"/></g></svg>